REM DIRINDEX 1\2\4\18,1\2\4\19,1\2\5\20,1\2\5\21,1\2\6\22,1\2\6\23,1\2\7\24,1\2\8\25,1\2\9\26,1\2\10\27,1\2\10\28,1\3\11\29,1\3\11\30,1\3\11\31,1\3\11\32,1\3\12\33,1\3\12\34,1\3\12\35,1\3\12\36,1\3\13\37,1\3\13\38,1\3\13\39,1\3\13\40,1\3\14\41,1\3\14\42,1\3\15\43,1\3\15\44,1\3\16\45,1\3\16\46,1\3\17\47,1\3\17\48,1\3\17\49,1\3\17\50
REM DIRNAME cjc135,folder01,folder02,folder03,folder04,folder05,folder06,folder07,folder08,folder09,folder10,folder11,folder12,folder13,folder14,folder15,folder16,folder17,folder18,folder19,folder20,folder21,folder22,folder23,folder24,folder25,folder26,folder27,folder28,folder29,folder30,folder31,folder32,folder33,folder34,folder35,folder36,folder37,folder38,folder39,folder40,folder41,folder42,folder43,folder44,folder45,folder46,folder47,folder48,folder49
TITLE ""
FILE "03.mp3" MP3
  TRACK 01 AUDIO
    TITLE "0:"
    INDEX 01 00:00:00
  TRACK 02 AUDIO
    TITLE "18:cjc135_0401"
    INDEX 01 00:00:15
  TRACK 03 AUDIO
    TITLE "0:"
    INDEX 01 00:01:19
  TRACK 04 AUDIO
    TITLE "19:cjc135_0402"
    INDEX 01 00:01:44
  TRACK 05 AUDIO
    TITLE "0:"
    INDEX 01 00:03:64
  TRACK 06 AUDIO
    TITLE "18:cjc135_0403"
    INDEX 01 00:04:64
  TRACK 07 AUDIO
    TITLE "0:"
    INDEX 01 00:06:00
  TRACK 08 AUDIO
    TITLE "19:cjc135_0404"
    INDEX 01 00:06:28
  TRACK 09 AUDIO
    TITLE "0:"
    INDEX 01 00:08:21
  TRACK 10 AUDIO
    TITLE "18:cjc135_0405"
    INDEX 01 00:09:24
  TRACK 11 AUDIO
    TITLE "0:"
    INDEX 01 00:10:39
  TRACK 12 AUDIO
    TITLE "19:cjc135_0406"
    INDEX 01 00:10:65
  TRACK 13 AUDIO
    TITLE "0:"
    INDEX 01 00:13:67
  TRACK 14 AUDIO
    TITLE "18:cjc135_0407"
    INDEX 01 00:14:66
  TRACK 15 AUDIO
    TITLE "0:"
    INDEX 01 00:15:72
  TRACK 16 AUDIO
    TITLE "19:cjc135_0408"
    INDEX 01 00:16:20
  TRACK 17 AUDIO
    TITLE "0:"
    INDEX 01 00:18:60
  TRACK 18 AUDIO
    TITLE "18:cjc135_0409"
    INDEX 01 00:19:60
  TRACK 19 AUDIO
    TITLE "0:"
    INDEX 01 00:20:57
  TRACK 20 AUDIO
    TITLE "19:cjc135_0410"
    INDEX 01 00:21:09
  TRACK 21 AUDIO
    TITLE "0:"
    INDEX 01 00:23:28
  TRACK 22 AUDIO
    TITLE "18:cjc135_0411"
    INDEX 01 00:24:27
  TRACK 23 AUDIO
    TITLE "0:"
    INDEX 01 00:25:31
  TRACK 24 AUDIO
    TITLE "19:cjc135_0412"
    INDEX 01 00:25:56
  TRACK 25 AUDIO
    TITLE "0:"
    INDEX 01 00:27:57
  TRACK 26 AUDIO
    TITLE "18:cjc135_0413"
    INDEX 01 00:28:55
  TRACK 27 AUDIO
    TITLE "0:"
    INDEX 01 00:29:66
  TRACK 28 AUDIO
    TITLE "19:cjc135_0414"
    INDEX 01 00:30:14
  TRACK 29 AUDIO
    TITLE "0:"
    INDEX 01 00:32:54
  TRACK 30 AUDIO
    TITLE "18:cjc135_0415"
    INDEX 01 00:33:56
  TRACK 31 AUDIO
    TITLE "0:"
    INDEX 01 00:34:61
  TRACK 32 AUDIO
    TITLE "19:cjc135_0416"
    INDEX 01 00:35:21
  TRACK 33 AUDIO
    TITLE "0:"
    INDEX 01 00:36:42
  TRACK 34 AUDIO
    TITLE "18:cjc135_0417"
    INDEX 01 00:37:42
  TRACK 35 AUDIO
    TITLE "0:"
    INDEX 01 00:38:57
  TRACK 36 AUDIO
    TITLE "19:cjc135_0418"
    INDEX 01 00:39:05
  TRACK 37 AUDIO
    TITLE "0:"
    INDEX 01 00:40:52
  TRACK 38 AUDIO
    TITLE "18:cjc135_0419"
    INDEX 01 00:41:51
  TRACK 39 AUDIO
    TITLE "0:"
    INDEX 01 00:42:57
  TRACK 40 AUDIO
    TITLE "19:cjc135_0420"
    INDEX 01 00:43:05
  TRACK 41 AUDIO
    TITLE "0:"
    INDEX 01 00:44:40
  TRACK 42 AUDIO
    TITLE "18:cjc135_0421"
    INDEX 01 00:45:39
  TRACK 43 AUDIO
    TITLE "0:"
    INDEX 01 00:46:66
  TRACK 44 AUDIO
    TITLE "19:cjc135_0422"
    INDEX 01 00:47:15
  TRACK 45 AUDIO
    TITLE "0:"
    INDEX 01 00:49:45
  TRACK 46 AUDIO
    TITLE "18:cjc135_0423"
    INDEX 01 00:50:54
  TRACK 47 AUDIO
    TITLE "0:"
    INDEX 01 00:51:54
  TRACK 48 AUDIO
    TITLE "19:cjc135_0424"
    INDEX 01 00:52:02
  TRACK 49 AUDIO
    TITLE "0:"
    INDEX 01 00:53:49
  TRACK 50 AUDIO
    TITLE "18:cjc135_0425"
    INDEX 01 00:54:48
  TRACK 51 AUDIO
    TITLE "0:"
    INDEX 01 00:55:51
  TRACK 52 AUDIO
    TITLE "19:cjc135_0426"
    INDEX 01 00:56:00
  TRACK 53 AUDIO
    TITLE "0:"
    INDEX 01 00:58:09
  TRACK 54 AUDIO
    TITLE "18:cjc135_0427"
    INDEX 01 00:59:10
  TRACK 55 AUDIO
    TITLE "0:"
    INDEX 01 01:00:33
  TRACK 56 AUDIO
    TITLE "19:cjc135_0428"
    INDEX 01 01:00:60
  TRACK 57 AUDIO
    TITLE "0:"
    INDEX 01 01:02:63
  TRACK 58 AUDIO
    TITLE "18:cjc135_0429"
    INDEX 01 01:03:65
  TRACK 59 AUDIO
    TITLE "0:"
    INDEX 01 01:05:09
  TRACK 60 AUDIO
    TITLE "19:cjc135_0430"
    INDEX 01 01:05:32
  TRACK 61 AUDIO
    TITLE "0:"
    INDEX 01 01:07:72
  TRACK 62 AUDIO
    TITLE "18:cjc135_0431"
    INDEX 01 01:08:72
  TRACK 63 AUDIO
    TITLE "0:"
    INDEX 01 01:09:69
  TRACK 64 AUDIO
    TITLE "19:cjc135_0432"
    INDEX 01 01:10:18
  TRACK 65 AUDIO
    TITLE "0:"
    INDEX 01 01:11:52
  TRACK 66 AUDIO
    TITLE "18:cjc135_0433"
    INDEX 01 01:12:54
  TRACK 67 AUDIO
    TITLE "0:"
    INDEX 01 01:13:57
  TRACK 68 AUDIO
    TITLE "19:cjc135_0434"
    INDEX 01 01:14:08
  TRACK 69 AUDIO
    TITLE "0:"
    INDEX 01 01:15:48
  TRACK 70 AUDIO
    TITLE "18:cjc135_0435"
    INDEX 01 01:16:50
  TRACK 71 AUDIO
    TITLE "0:"
    INDEX 01 01:17:57
  TRACK 72 AUDIO
    TITLE "19:cjc135_0436"
    INDEX 01 01:18:07
  TRACK 73 AUDIO
    TITLE "0:"
    INDEX 01 01:20:51
  TRACK 74 AUDIO
    TITLE "18:cjc135_0437"
    INDEX 01 01:21:49
  TRACK 75 AUDIO
    TITLE "0:"
    INDEX 01 01:22:48
  TRACK 76 AUDIO
    TITLE "19:cjc135_0438"
    INDEX 01 01:22:72
  TRACK 77 AUDIO
    TITLE "0:"
    INDEX 01 01:24:37
  TRACK 78 AUDIO
    TITLE "18:cjc135_0439"
    INDEX 01 01:25:37
  TRACK 79 AUDIO
    TITLE "0:"
    INDEX 01 01:26:52
  TRACK 80 AUDIO
    TITLE "19:cjc135_0440"
    INDEX 01 01:27:03
  TRACK 81 AUDIO
    TITLE "0:"
    INDEX 01 01:29:72
  TRACK 82 AUDIO
    TITLE "18:cjc135_0441"
    INDEX 01 01:30:71
  TRACK 83 AUDIO
    TITLE "0:"
    INDEX 01 01:32:06
  TRACK 84 AUDIO
    TITLE "19:cjc135_0442"
    INDEX 01 01:32:33
  TRACK 85 AUDIO
    TITLE "0:"
    INDEX 01 01:34:46
  TRACK 86 AUDIO
    TITLE "18:cjc135_0443"
    INDEX 01 01:35:47
  TRACK 87 AUDIO
    TITLE "0:"
    INDEX 01 01:36:48
  TRACK 88 AUDIO
    TITLE "19:cjc135_0444"
    INDEX 01 01:36:72
  TRACK 89 AUDIO
    TITLE "0:"
    INDEX 01 01:39:10
  TRACK 90 AUDIO
    TITLE "18:cjc135_0445"
    INDEX 01 01:40:09
  TRACK 91 AUDIO
    TITLE "0:"
    INDEX 01 01:41:28
  TRACK 92 AUDIO
    TITLE "19:cjc135_0446"
    INDEX 01 01:41:52
  TRACK 93 AUDIO
    TITLE "0:"
    INDEX 01 01:43:58
  TRACK 94 AUDIO
    TITLE "18:cjc135_0447"
    INDEX 01 01:44:58
  TRACK 95 AUDIO
    TITLE "0:"
    INDEX 01 01:46:00
  TRACK 96 AUDIO
    TITLE "19:cjc135_0448"
    INDEX 01 01:46:25
  TRACK 97 AUDIO
    TITLE "0:"
    INDEX 01 01:48:16
  TRACK 98 AUDIO
    TITLE "18:cjc135_0449"
    INDEX 01 01:49:14
  TRACK 99 AUDIO
    TITLE "0:"
    INDEX 01 01:50:21
  TRACK 100 AUDIO
    TITLE "19:cjc135_0450"
    INDEX 01 01:50:47
  TRACK 101 AUDIO
    TITLE "0:"
    INDEX 01 01:52:16
  TRACK 102 AUDIO
    TITLE "18:cjc135_0451"
    INDEX 01 01:53:16
  TRACK 103 AUDIO
    TITLE "0:"
    INDEX 01 01:54:31
  TRACK 104 AUDIO
    TITLE "19:cjc135_0452"
    INDEX 01 01:54:54
  TRACK 105 AUDIO
    TITLE "0:"
    INDEX 01 01:56:51
  TRACK 106 AUDIO
    TITLE "18:cjc135_0453"
    INDEX 01 01:57:53
  TRACK 107 AUDIO
    TITLE "0:"
    INDEX 01 01:58:70
  TRACK 108 AUDIO
    TITLE "19:cjc135_0454"
    INDEX 01 01:59:16
  TRACK 109 AUDIO
    TITLE "0:"
    INDEX 01 02:02:17
  TRACK 110 AUDIO
    TITLE "18:cjc135_0455"
    INDEX 01 02:03:18
  TRACK 111 AUDIO
    TITLE "0:"
    INDEX 01 02:04:15
  TRACK 112 AUDIO
    TITLE "19:cjc135_0456"
    INDEX 01 02:04:39
  TRACK 113 AUDIO
    TITLE "0:"
    INDEX 01 02:06:18
  TRACK 114 AUDIO
    TITLE "18:cjc135_0457"
    INDEX 01 02:07:18
  TRACK 115 AUDIO
    TITLE "0:"
    INDEX 01 02:08:27
  TRACK 116 AUDIO
    TITLE "19:cjc135_0458"
    INDEX 01 02:08:52
  TRACK 117 AUDIO
    TITLE "0:"
    INDEX 01 02:10:24
  TRACK 118 AUDIO
    TITLE "18:cjc135_0459"
    INDEX 01 02:11:25
  TRACK 119 AUDIO
    TITLE "0:"
    INDEX 01 02:12:38
  TRACK 120 AUDIO
    TITLE "19:cjc135_0460"
    INDEX 01 02:12:62
  TRACK 121 AUDIO
    TITLE "0:"
    INDEX 01 02:15:19
  TRACK 122 AUDIO
    TITLE "18:cjc135_0461"
    INDEX 01 02:16:21
  TRACK 123 AUDIO
    TITLE "0:"
    INDEX 01 02:17:22
  TRACK 124 AUDIO
    TITLE "19:cjc135_0462"
    INDEX 01 02:17:47
  TRACK 125 AUDIO
    TITLE "0:"
    INDEX 01 02:19:07
  TRACK 126 AUDIO
    TITLE "18:cjc135_0463"
    INDEX 01 02:20:07
  TRACK 127 AUDIO
    TITLE "0:"
    INDEX 01 02:21:22
  TRACK 128 AUDIO
    TITLE "19:cjc135_0464"
    INDEX 01 02:21:47
  TRACK 129 AUDIO
    TITLE "0:"
    INDEX 01 02:23:74
  TRACK 130 AUDIO
    TITLE "18:cjc135_0465"
    INDEX 01 02:24:69
  TRACK 131 AUDIO
    TITLE "0:"
    INDEX 01 02:25:74
  TRACK 132 AUDIO
    TITLE "19:cjc135_0466"
    INDEX 01 02:26:23
  TRACK 133 AUDIO
    TITLE "0:"
    INDEX 01 02:27:62
  TRACK 134 AUDIO
    TITLE "18:cjc135_0467"
    INDEX 01 02:28:63
  TRACK 135 AUDIO
    TITLE "0:"
    INDEX 01 02:30:15
  TRACK 136 AUDIO
    TITLE "19:cjc135_0468"
    INDEX 01 02:30:40
  TRACK 137 AUDIO
    TITLE "0:"
    INDEX 01 02:32:49
  TRACK 138 AUDIO
    TITLE "18:cjc135_0469"
    INDEX 01 02:33:50
  TRACK 139 AUDIO
    TITLE "0:"
    INDEX 01 02:34:58
  TRACK 140 AUDIO
    TITLE "19:cjc135_0470"
    INDEX 01 02:35:06
  TRACK 141 AUDIO
    TITLE "0:"
    INDEX 01 02:37:48
  TRACK 142 AUDIO
    TITLE "18:cjc135_0471"
    INDEX 01 02:38:48
  TRACK 143 AUDIO
    TITLE "0:"
    INDEX 01 02:39:45
  TRACK 144 AUDIO
    TITLE "19:cjc135_0472"
    INDEX 01 02:39:71
  TRACK 145 AUDIO
    TITLE "0:"
    INDEX 01 02:41:48
  TRACK 146 AUDIO
    TITLE "18:cjc135_0473"
    INDEX 01 02:42:49
  TRACK 147 AUDIO
    TITLE "0:"
    INDEX 01 02:43:45
  TRACK 148 AUDIO
    TITLE "19:cjc135_0474"
    INDEX 01 02:43:70
  TRACK 149 AUDIO
    TITLE "0:"
    INDEX 01 02:46:24
  TRACK 150 AUDIO
    TITLE "18:cjc135_0475"
    INDEX 01 02:47:25
  TRACK 151 AUDIO
    TITLE "0:"
    INDEX 01 02:48:34
  TRACK 152 AUDIO
    TITLE "19:cjc135_0476"
    INDEX 01 02:48:60
  TRACK 153 AUDIO
    TITLE "0:"
    INDEX 01 02:50:39
  TRACK 154 AUDIO
    TITLE "18:cjc135_0477"
    INDEX 01 02:51:40
  TRACK 155 AUDIO
    TITLE "0:"
    INDEX 01 02:52:46
  TRACK 156 AUDIO
    TITLE "19:cjc135_0478"
    INDEX 01 02:52:67
  TRACK 157 AUDIO
    TITLE "0:"
    INDEX 01 02:55:09
  TRACK 158 AUDIO
    TITLE "18:cjc135_0479"
    INDEX 01 02:56:06
  TRACK 159 AUDIO
    TITLE "0:"
    INDEX 01 02:57:18
  TRACK 160 AUDIO
    TITLE "19:cjc135_0480"
    INDEX 01 02:57:43
  TRACK 161 AUDIO
    TITLE "0:"
    INDEX 01 02:59:09
  TRACK 162 AUDIO
    TITLE "18:cjc135_0481"
    INDEX 01 03:00:10
  TRACK 163 AUDIO
    TITLE "0:"
    INDEX 01 03:01:25
  TRACK 164 AUDIO
    TITLE "19:cjc135_0482"
    INDEX 01 03:01:51
  TRACK 165 AUDIO
    TITLE "0:"
    INDEX 01 03:03:63
  TRACK 166 AUDIO
    TITLE "18:cjc135_0483"
    INDEX 01 03:04:65
  TRACK 167 AUDIO
    TITLE "0:"
    INDEX 01 03:06:09
  TRACK 168 AUDIO
    TITLE "19:cjc135_0484"
    INDEX 01 03:06:30
  TRACK 169 AUDIO
    TITLE "0:"
    INDEX 01 03:09:09
  TRACK 170 AUDIO
    TITLE "18:cjc135_0485"
    INDEX 01 03:10:10
  TRACK 171 AUDIO
    TITLE "0:"
    INDEX 01 03:11:27
  TRACK 172 AUDIO
    TITLE "19:cjc135_0486"
    INDEX 01 03:11:53
  TRACK 173 AUDIO
    TITLE "0:"
    INDEX 01 03:13:71
  TRACK 174 AUDIO
    TITLE "18:cjc135_0487"
    INDEX 01 03:14:69
  TRACK 175 AUDIO
    TITLE "0:"
    INDEX 01 03:16:19
  TRACK 176 AUDIO
    TITLE "19:cjc135_0488"
    INDEX 01 03:16:42
  TRACK 177 AUDIO
    TITLE "0:"
    INDEX 01 03:18:33
  TRACK 178 AUDIO
    TITLE "18:cjc135_0489"
    INDEX 01 03:19:33
  TRACK 179 AUDIO
    TITLE "0:"
    INDEX 01 03:20:36
  TRACK 180 AUDIO
    TITLE "19:cjc135_0490"
    INDEX 01 03:20:66
  TRACK 181 AUDIO
    TITLE "0:"
    INDEX 01 03:22:66
  TRACK 182 AUDIO
    TITLE "18:cjc135_0491"
    INDEX 01 03:23:68
  TRACK 183 AUDIO
    TITLE "0:"
    INDEX 01 03:25:00
  TRACK 184 AUDIO
    TITLE "19:cjc135_0492"
    INDEX 01 03:25:22
  TRACK 185 AUDIO
    TITLE "0:"
    INDEX 01 03:27:15
  TRACK 186 AUDIO
    TITLE "18:cjc135_0493"
    INDEX 01 03:28:14
  TRACK 187 AUDIO
    TITLE "0:"
    INDEX 01 03:29:27
  TRACK 188 AUDIO
    TITLE "19:cjc135_0494"
    INDEX 01 03:29:53
  TRACK 189 AUDIO
    TITLE "0:"
    INDEX 01 03:32:04
  TRACK 190 AUDIO
    TITLE "18:cjc135_0495"
    INDEX 01 03:33:06
  TRACK 191 AUDIO
    TITLE "0:"
    INDEX 01 03:34:09
  TRACK 192 AUDIO
    TITLE "19:cjc135_0496"
    INDEX 01 03:34:32
  TRACK 193 AUDIO
    TITLE "0:"
    INDEX 01 03:36:72
  TRACK 194 AUDIO
    TITLE "18:cjc135_0497"
    INDEX 01 03:37:72
  TRACK 195 AUDIO
    TITLE "0:"
    INDEX 01 03:38:73
  TRACK 196 AUDIO
    TITLE "19:cjc135_0498"
    INDEX 01 03:39:22
  TRACK 197 AUDIO
    TITLE "0:"
    INDEX 01 03:41:66
  TRACK 198 AUDIO
    TITLE "18:cjc135_0499"
    INDEX 01 03:42:65
  TRACK 199 AUDIO
    TITLE "0:"
    INDEX 01 03:44:00
  TRACK 200 AUDIO
    TITLE "19:cjc135_0500"
    INDEX 01 03:44:25
  TRACK 201 AUDIO
    TITLE "0:"
    INDEX 01 03:47:04
  TRACK 202 AUDIO
    TITLE "18:cjc135_0501"
    INDEX 01 03:48:07
  TRACK 203 AUDIO
    TITLE "0:"
    INDEX 01 03:49:30
  TRACK 204 AUDIO
    TITLE "19:cjc135_0502"
    INDEX 01 03:49:56
  TRACK 205 AUDIO
    TITLE "0:"
    INDEX 01 03:51:60
  TRACK 206 AUDIO
    TITLE "18:cjc135_0503"
    INDEX 01 03:52:62
  TRACK 207 AUDIO
    TITLE "0:"
    INDEX 01 03:53:67
  TRACK 208 AUDIO
    TITLE "19:cjc135_0504"
    INDEX 01 03:54:18
  TRACK 209 AUDIO
    TITLE "0:"
    INDEX 01 03:55:58
  TRACK 210 AUDIO
    TITLE "18:cjc135_0505"
    INDEX 01 03:56:58
  TRACK 211 AUDIO
    TITLE "0:"
    INDEX 01 03:57:67
  TRACK 212 AUDIO
    TITLE "19:cjc135_0506"
    INDEX 01 03:58:15
  TRACK 213 AUDIO
    TITLE "0:"
    INDEX 01 03:59:72
  TRACK 214 AUDIO
    TITLE "18:cjc135_0507"
    INDEX 01 04:00:73
  TRACK 215 AUDIO
    TITLE "0:"
    INDEX 01 04:01:69
  TRACK 216 AUDIO
    TITLE "19:cjc135_0508"
    INDEX 01 04:02:17
  TRACK 217 AUDIO
    TITLE "0:"
    INDEX 01 04:03:58
  TRACK 218 AUDIO
    TITLE "18:cjc135_0509"
    INDEX 01 04:04:63
  TRACK 219 AUDIO
    TITLE "0:"
    INDEX 01 04:05:70
  TRACK 220 AUDIO
    TITLE "19:cjc135_0510"
    INDEX 01 04:06:19
  TRACK 221 AUDIO
    TITLE "0:"
    INDEX 01 04:07:42
  TRACK 222 AUDIO
    TITLE "18:cjc135_0511"
    INDEX 01 04:08:39
  TRACK 223 AUDIO
    TITLE "0:"
    INDEX 01 04:09:43
  TRACK 224 AUDIO
    TITLE "19:cjc135_0512"
    INDEX 01 04:09:68
  TRACK 225 AUDIO
    TITLE "0:"
    INDEX 01 04:11:24
  TRACK 226 AUDIO
    TITLE "18:cjc135_0513"
    INDEX 01 04:12:25
  TRACK 227 AUDIO
    TITLE "0:"
    INDEX 01 04:13:27
  TRACK 228 AUDIO
    TITLE "19:cjc135_0514"
    INDEX 01 04:13:52
  TRACK 229 AUDIO
    TITLE "0:"
    INDEX 01 04:15:33
  TRACK 230 AUDIO
    TITLE "18:cjc135_0515"
    INDEX 01 04:16:33
  TRACK 231 AUDIO
    TITLE "0:"
    INDEX 01 04:17:36
  TRACK 232 AUDIO
    TITLE "19:cjc135_0516"
    INDEX 01 04:17:60
  TRACK 233 AUDIO
    TITLE "0:"
    INDEX 01 04:19:06
  TRACK 234 AUDIO
    TITLE "18:cjc135_0517"
    INDEX 01 04:20:07
  TRACK 235 AUDIO
    TITLE "0:"
    INDEX 01 04:21:24
  TRACK 236 AUDIO
    TITLE "19:cjc135_0518"
    INDEX 01 04:21:52
  TRACK 237 AUDIO
    TITLE "0:"
    INDEX 01 04:23:43
  TRACK 238 AUDIO
    TITLE "18:cjc135_0519"
    INDEX 01 04:24:42
  TRACK 239 AUDIO
    TITLE "0:"
    INDEX 01 04:25:51
  TRACK 240 AUDIO
    TITLE "19:cjc135_0520"
    INDEX 01 04:26:04
  TRACK 241 AUDIO
    TITLE "0:"
    INDEX 01 04:28:34
  TRACK 242 AUDIO
    TITLE "18:cjc135_0521"
    INDEX 01 04:29:32
  TRACK 243 AUDIO
    TITLE "0:"
    INDEX 01 04:30:45
  TRACK 244 AUDIO
    TITLE "19:cjc135_0522"
    INDEX 01 04:30:68
  TRACK 245 AUDIO
    TITLE "0:"
    INDEX 01 04:33:72
  TRACK 246 AUDIO
    TITLE "18:cjc135_0523"
    INDEX 01 04:34:72
  TRACK 247 AUDIO
    TITLE "0:"
    INDEX 01 04:36:10
  TRACK 248 AUDIO
    TITLE "19:cjc135_0524"
    INDEX 01 04:36:36
  TRACK 249 AUDIO
    TITLE "0:"
    INDEX 01 04:39:10
  TRACK 250 AUDIO
    TITLE "18:cjc135_0525"
    INDEX 01 04:40:10
  TRACK 251 AUDIO
    TITLE "0:"
    INDEX 01 04:41:19
  TRACK 252 AUDIO
    TITLE "19:cjc135_0526"
    INDEX 01 04:41:45
  TRACK 253 AUDIO
    TITLE "0:"
    INDEX 01 04:43:69
  TRACK 254 AUDIO
    TITLE "18:cjc135_0527"
    INDEX 01 04:44:70
  TRACK 255 AUDIO
    TITLE "0:"
    INDEX 01 04:45:72
  TRACK 256 AUDIO
    TITLE "19:cjc135_0528"
    INDEX 01 04:46:22
  TRACK 257 AUDIO
    TITLE "0:"
    INDEX 01 04:49:54
  TRACK 258 AUDIO
    TITLE "18:cjc135_0529"
    INDEX 01 04:50:55
  TRACK 259 AUDIO
    TITLE "0:"
    INDEX 01 04:51:51
  TRACK 260 AUDIO
    TITLE "19:cjc135_0530"
    INDEX 01 04:51:74
  TRACK 261 AUDIO
    TITLE "0:"
    INDEX 01 04:54:28
  TRACK 262 AUDIO
    TITLE "18:cjc135_0531"
    INDEX 01 04:55:27
  TRACK 263 AUDIO
    TITLE "0:"
    INDEX 01 04:56:30
  TRACK 264 AUDIO
    TITLE "19:cjc135_0532"
    INDEX 01 04:56:58
  TRACK 265 AUDIO
    TITLE "0:"
    INDEX 01 05:00:11
  TRACK 266 AUDIO
    TITLE "18:cjc135_0533"
    INDEX 01 05:01:10
  TRACK 267 AUDIO
    TITLE "0:"
    INDEX 01 05:02:33
  TRACK 268 AUDIO
    TITLE "19:cjc135_0534"
    INDEX 01 05:02:60
  TRACK 269 AUDIO
    TITLE "0:"
    INDEX 01 05:05:49
  TRACK 270 AUDIO
    TITLE "18:cjc135_0535"
    INDEX 01 05:06:50
  TRACK 271 AUDIO
    TITLE "0:"
    INDEX 01 05:07:67
  TRACK 272 AUDIO
    TITLE "19:cjc135_0536"
    INDEX 01 05:08:18
  TRACK 273 AUDIO
    TITLE "0:"
    INDEX 01 05:11:28
  TRACK 274 AUDIO
    TITLE "18:cjc135_0537"
    INDEX 01 05:12:27
  TRACK 275 AUDIO
    TITLE "0:"
    INDEX 01 05:13:60
  TRACK 276 AUDIO
    TITLE "19:cjc135_0538"
    INDEX 01 05:14:13
  TRACK 277 AUDIO
    TITLE "0:"
    INDEX 01 05:16:59
  TRACK 278 AUDIO
    TITLE "18:cjc135_0539"
    INDEX 01 05:17:58
  TRACK 279 AUDIO
    TITLE "0:"
    INDEX 01 05:18:63
  TRACK 280 AUDIO
    TITLE "19:cjc135_0540"
    INDEX 01 05:19:16
  TRACK 281 AUDIO
    TITLE "0:"
    INDEX 01 05:21:13
  TRACK 282 AUDIO
    TITLE "18:cjc135_0541"
    INDEX 01 05:22:12
  TRACK 283 AUDIO
    TITLE "0:"
    INDEX 01 05:23:21
  TRACK 284 AUDIO
    TITLE "19:cjc135_0542"
    INDEX 01 05:23:47
  TRACK 285 AUDIO
    TITLE "0:"
    INDEX 01 05:25:30
  TRACK 286 AUDIO
    TITLE "18:cjc135_0543"
    INDEX 01 05:26:31
  TRACK 287 AUDIO
    TITLE "0:"
    INDEX 01 05:27:54
  TRACK 288 AUDIO
    TITLE "19:cjc135_0544"
    INDEX 01 05:28:19
  TRACK 289 AUDIO
    TITLE "0:"
    INDEX 01 05:30:06
  TRACK 290 AUDIO
    TITLE "18:cjc135_0545"
    INDEX 01 05:31:07
  TRACK 291 AUDIO
    TITLE "0:"
    INDEX 01 05:32:18
  TRACK 292 AUDIO
    TITLE "19:cjc135_0546"
    INDEX 01 05:32:48
  TRACK 293 AUDIO
    TITLE "0:"
    INDEX 01 05:34:66
  TRACK 294 AUDIO
    TITLE "18:cjc135_0547"
    INDEX 01 05:35:72
  TRACK 295 AUDIO
    TITLE "0:"
    INDEX 01 05:37:04
  TRACK 296 AUDIO
    TITLE "19:cjc135_0548"
    INDEX 01 05:37:27
  TRACK 297 AUDIO
    TITLE "0:"
    INDEX 01 05:40:00
  TRACK 298 AUDIO
    TITLE "18:cjc135_0549"
    INDEX 01 05:41:02
  TRACK 299 AUDIO
    TITLE "0:"
    INDEX 01 05:42:15
  TRACK 300 AUDIO
    TITLE "19:cjc135_0550"
    INDEX 01 05:42:42
  TRACK 301 AUDIO
    TITLE "0:"
    INDEX 01 05:45:31
  TRACK 302 AUDIO
    TITLE "18:cjc135_0551"
    INDEX 01 05:46:30
  TRACK 303 AUDIO
    TITLE "0:"
    INDEX 01 05:47:34
  TRACK 304 AUDIO
    TITLE "19:cjc135_0552"
    INDEX 01 05:47:57
  TRACK 305 AUDIO
    TITLE "0:"
    INDEX 01 05:50:30
  TRACK 306 AUDIO
    TITLE "18:cjc135_0553"
    INDEX 01 05:51:31
  TRACK 307 AUDIO
    TITLE "0:"
    INDEX 01 05:52:50
  TRACK 308 AUDIO
    TITLE "19:cjc135_0554"
    INDEX 01 05:52:74
  TRACK 309 AUDIO
    TITLE "0:"
    INDEX 01 05:55:68
  TRACK 310 AUDIO
    TITLE "18:cjc135_0555"
    INDEX 01 05:56:68
  TRACK 311 AUDIO
    TITLE "0:"
    INDEX 01 05:58:06
  TRACK 312 AUDIO
    TITLE "19:cjc135_0556"
    INDEX 01 05:58:31
  TRACK 313 AUDIO
    TITLE "0:"
    INDEX 01 06:01:57
  TRACK 314 AUDIO
    TITLE "18:cjc135_0557"
    INDEX 01 06:02:57
  TRACK 315 AUDIO
    TITLE "0:"
    INDEX 01 06:03:58
  TRACK 316 AUDIO
    TITLE "19:cjc135_0558"
    INDEX 01 06:04:07
  TRACK 317 AUDIO
    TITLE "0:"
    INDEX 01 06:06:49
  TRACK 318 AUDIO
    TITLE "18:cjc135_0559"
    INDEX 01 06:07:48
  TRACK 319 AUDIO
    TITLE "0:"
    INDEX 01 06:08:55
  TRACK 320 AUDIO
    TITLE "19:cjc135_0560"
    INDEX 01 06:09:04
  TRACK 321 AUDIO
    TITLE "0:"
    INDEX 01 06:11:40
  TRACK 322 AUDIO
    TITLE "18:cjc135_0561"
    INDEX 01 06:12:39
  TRACK 323 AUDIO
    TITLE "0:"
    INDEX 01 06:13:43
  TRACK 324 AUDIO
    TITLE "19:cjc135_0562"
    INDEX 01 06:13:66
  TRACK 325 AUDIO
    TITLE "0:"
    INDEX 01 06:15:30
  TRACK 326 AUDIO
    TITLE "18:cjc135_0563"
    INDEX 01 06:16:29
  TRACK 327 AUDIO
    TITLE "0:"
    INDEX 01 06:17:37
  TRACK 328 AUDIO
    TITLE "19:cjc135_0564"
    INDEX 01 06:17:62
  TRACK 329 AUDIO
    TITLE "0:"
    INDEX 01 06:20:17
  TRACK 330 AUDIO
    TITLE "18:cjc135_0565"
    INDEX 01 06:21:17
  TRACK 331 AUDIO
    TITLE "0:"
    INDEX 01 06:22:18
  TRACK 332 AUDIO
    TITLE "19:cjc135_0566"
    INDEX 01 06:22:42
  TRACK 333 AUDIO
    TITLE "0:"
    INDEX 01 06:24:15
  TRACK 334 AUDIO
    TITLE "18:cjc135_0567"
    INDEX 01 06:25:17
  TRACK 335 AUDIO
    TITLE "0:"
    INDEX 01 06:26:24
  TRACK 336 AUDIO
    TITLE "19:cjc135_0568"
    INDEX 01 06:26:49
  TRACK 337 AUDIO
    TITLE "0:"
    INDEX 01 06:29:63
  TRACK 338 AUDIO
    TITLE "18:cjc135_0569"
    INDEX 01 06:30:65
  TRACK 339 AUDIO
    TITLE "0:"
    INDEX 01 06:31:72
  TRACK 340 AUDIO
    TITLE "19:cjc135_0570"
    INDEX 01 06:32:23
  TRACK 341 AUDIO
    TITLE "0:"
    INDEX 01 06:34:19
  TRACK 342 AUDIO
    TITLE "18:cjc135_0571"
    INDEX 01 06:35:17
  TRACK 343 AUDIO
    TITLE "0:"
    INDEX 01 06:36:14
  TRACK 344 AUDIO
    TITLE "19:cjc135_0572"
    INDEX 01 06:36:36
  TRACK 345 AUDIO
    TITLE "0:"
    INDEX 01 06:39:32
  TRACK 346 AUDIO
    TITLE "18:cjc135_0573"
    INDEX 01 06:40:32
  TRACK 347 AUDIO
    TITLE "0:"
    INDEX 01 06:41:49
  TRACK 348 AUDIO
    TITLE "19:cjc135_0574"
    INDEX 01 06:41:74
  TRACK 349 AUDIO
    TITLE "0:"
    INDEX 01 06:44:73
  TRACK 350 AUDIO
    TITLE "18:cjc135_0575"
    INDEX 01 06:45:72
  TRACK 351 AUDIO
    TITLE "0:"
    INDEX 01 06:47:28
  TRACK 352 AUDIO
    TITLE "19:cjc135_0576"
    INDEX 01 06:47:51
  TRACK 353 AUDIO
    TITLE "0:"
    INDEX 01 06:49:72
  TRACK 354 AUDIO
    TITLE "18:cjc135_0577"
    INDEX 01 06:50:71
  TRACK 355 AUDIO
    TITLE "0:"
    INDEX 01 06:52:04
  TRACK 356 AUDIO
    TITLE "19:cjc135_0578"
    INDEX 01 06:52:27
  TRACK 357 AUDIO
    TITLE "0:"
    INDEX 01 06:54:36
  TRACK 358 AUDIO
    TITLE "18:cjc135_0579"
    INDEX 01 06:55:37
  TRACK 359 AUDIO
    TITLE "0:"
    INDEX 01 06:56:64
  TRACK 360 AUDIO
    TITLE "19:cjc135_0580"
    INDEX 01 06:57:15
  TRACK 361 AUDIO
    TITLE "0:"
    INDEX 01 07:00:29
  TRACK 362 AUDIO
    TITLE "18:cjc135_0581"
    INDEX 01 07:01:28
  TRACK 363 AUDIO
    TITLE "0:"
    INDEX 01 07:02:45
  TRACK 364 AUDIO
    TITLE "19:cjc135_0582"
    INDEX 01 07:02:73
  TRACK 365 AUDIO
    TITLE "0:"
    INDEX 01 07:05:12
  TRACK 366 AUDIO
    TITLE "18:cjc135_0583"
    INDEX 01 07:06:16
  TRACK 367 AUDIO
    TITLE "0:"
    INDEX 01 07:07:15
  TRACK 368 AUDIO
    TITLE "19:cjc135_0584"
    INDEX 01 07:07:46
  TRACK 369 AUDIO
    TITLE "0:"
    INDEX 01 07:09:51
  TRACK 370 AUDIO
    TITLE "18:cjc135_0585"
    INDEX 01 07:10:60
  TRACK 371 AUDIO
    TITLE "0:"
    INDEX 01 07:11:60
  TRACK 372 AUDIO
    TITLE "19:cjc135_0586"
    INDEX 01 07:12:18
  TRACK 373 AUDIO
    TITLE "0:"
    INDEX 01 07:14:03
  TRACK 374 AUDIO
    TITLE "18:cjc135_0587"
    INDEX 01 07:15:05
  TRACK 375 AUDIO
    TITLE "0:"
    INDEX 01 07:16:24
  TRACK 376 AUDIO
    TITLE "19:cjc135_0588"
    INDEX 01 07:16:47
  TRACK 377 AUDIO
    TITLE "0:"
    INDEX 01 07:18:70
  TRACK 378 AUDIO
    TITLE "18:cjc135_0589"
    INDEX 01 07:19:69
  TRACK 379 AUDIO
    TITLE "0:"
    INDEX 01 07:20:71
  TRACK 380 AUDIO
    TITLE "19:cjc135_0590"
    INDEX 01 07:21:19
  TRACK 381 AUDIO
    TITLE "0:"
    INDEX 01 07:23:32
  TRACK 382 AUDIO
    TITLE "18:cjc135_0591"
    INDEX 01 07:24:33
  TRACK 383 AUDIO
    TITLE "0:"
    INDEX 01 07:25:33
  TRACK 384 AUDIO
    TITLE "19:cjc135_0592"
    INDEX 01 07:25:58
  TRACK 385 AUDIO
    TITLE "0:"
    INDEX 01 07:27:67
  TRACK 386 AUDIO
    TITLE "18:cjc135_0593"
    INDEX 01 07:28:64
  TRACK 387 AUDIO
    TITLE "0:"
    INDEX 01 07:30:06
  TRACK 388 AUDIO
    TITLE "19:cjc135_0594"
    INDEX 01 07:30:32
  TRACK 389 AUDIO
    TITLE "0:"
    INDEX 01 07:32:09
  TRACK 390 AUDIO
    TITLE "18:cjc135_0595"
    INDEX 01 07:33:10
  TRACK 391 AUDIO
    TITLE "0:"
    INDEX 01 07:34:16
  TRACK 392 AUDIO
    TITLE "19:cjc135_0596"
    INDEX 01 07:34:39
  TRACK 393 AUDIO
    TITLE "0:"
    INDEX 01 07:37:18
  TRACK 394 AUDIO
    TITLE "18:cjc135_0597"
    INDEX 01 07:38:18
  TRACK 395 AUDIO
    TITLE "0:"
    INDEX 01 07:39:13
  TRACK 396 AUDIO
    TITLE "19:cjc135_0598"
    INDEX 01 07:39:37
  TRACK 397 AUDIO
    TITLE "0:"
    INDEX 01 07:41:33
  TRACK 398 AUDIO
    TITLE "18:cjc135_0599"
    INDEX 01 07:42:33
  TRACK 399 AUDIO
    TITLE "0:"
    INDEX 01 07:43:36
  TRACK 400 AUDIO
    TITLE "19:cjc135_0600"
    INDEX 01 07:43:62
  TRACK 401 AUDIO
    TITLE "0:"
    INDEX 01 07:45:51
